<svg width="170" height="208" viewBox="0 0 170 208" fill="none" xmlns="http://www.w3.org/2000/svg">
<mask id="mask0_1_397" style="mask-type:luminance" maskUnits="userSpaceOnUse" x="0" y="0" width="170" height="208">
<path d="M165.231 0H4.76899C2.13515 0 0 2.13515 0 4.76899V202.253C0 204.887 2.13515 207.022 4.76899 207.022H165.231C167.865 207.022 170 204.887 170 202.253V4.76899C170 2.13515 167.865 0 165.231 0Z" fill="white"/>
</mask>
<g mask="url(#mask0_1_397)">
<path d="M101.899 151C109.687 149.98 113.697 148.478 116.907 145.864C116.659 144.805 116.85 143.656 117.536 142.683L124.17 133.326C124.866 132.344 125.939 131.743 127.079 131.581C127.227 131.138 127.365 130.684 127.504 130.227L118.924 130.355L118.352 92.3991L126.931 92.2703C126.783 91.8172 126.626 91.3642 126.469 90.9302C125.324 90.7967 124.237 90.2339 123.512 89.2706L116.597 80.1189C115.882 79.1699 115.657 78.0253 115.872 76.9571C112.586 74.4438 108.533 73.0656 100.716 72.2787C80.0378 70.1994 47.6612 74.7347 39.6683 74.7586C-2.95685 74.873 -28.9097 74.9112 -37.8515 77.8727C-39.5493 78.4355 -40.9371 79.7946 -42.0721 81.6641C-41.8813 82.0551 -41.7573 82.5368 -41.7478 83.1282C-41.7001 86.4283 -43.8223 88.0641 -43.1546 91.7028C-42.7111 94.1064 -44.6855 94.9505 -46.0876 95.2509C-46.3975 97.416 -46.6122 99.5907 -46.7695 101.651C-46.2974 101.98 -45.9779 102.524 -45.9683 103.148L-45.6441 124.537C-45.6345 125.162 -45.935 125.715 -46.4023 126.059C-46.2402 127.594 -46.0399 129.192 -45.7919 130.804C-44.3898 131.014 -42.115 131.743 -42.5108 134.304C-43.0688 137.962 -40.8941 139.536 -40.8465 142.836C-40.8321 143.866 -41.1612 144.572 -41.6286 145.063C-40.3362 147.352 -38.7433 149.002 -36.769 149.589C-27.7413 152.278 -1.80276 151.534 40.8081 150.361C48.7962 150.142 81.2968 153.7 101.899 150.996V151Z" fill="#E4510F"/>
<path d="M118.92 130.355L127.499 130.226C130.699 119.348 130.456 103.048 126.927 92.27L118.348 92.3988L118.92 130.355Z" fill="#002547"/>
<path d="M100.591 148.658C113.52 146.998 115.637 144.003 121.603 136.626C129.692 126.62 129.229 95.8032 120.84 86.0459C114.655 78.8543 112.447 75.9261 99.4753 74.6576C79.5696 72.7118 48.4091 76.9848 40.7167 77.0087C-0.310871 77.1279 -25.2956 77.1756 -33.8988 79.9654C-43.8135 83.1797 -42.8073 113.811 -42.8073 113.816C-42.8073 113.82 -42.8884 144.471 -32.8783 147.38C-24.1939 149.903 0.776459 149.197 41.7945 148.081C49.4869 147.871 80.7619 151.2 100.596 148.658H100.591Z" fill="#EF6C1B"/>
<path d="M56.9611 97.2104C55.9644 90.8152 54.1284 86.2561 53.3749 84.5679L50.5469 85.1068C50.5469 85.1068 53.1984 90.076 54.467 97.8972C55.5638 104.645 55.7975 120.011 54.901 126.788C53.8709 134.642 51.3719 139.693 51.3719 139.693L54.2142 140.146C54.9153 138.438 56.613 133.822 57.419 127.403C58.306 120.321 58.0628 104.264 56.9611 97.2104Z" fill="#002547"/>
<path d="M78.065 82.217C79.1809 84.6921 81.0408 88.9937 82.6194 95.7418C84.8798 105.428 85.0754 118.342 83.1058 128.095C81.7323 134.89 80.006 139.244 78.9615 141.748C78.5037 142.845 78.127 143.541 77.7407 143.899L77.8265 143.913C77.8265 143.913 79.882 144.343 80.4304 144.037C80.9073 143.775 81.3413 143.026 81.8897 141.705C82.9341 139.202 84.6605 134.847 86.0339 128.052C88.0035 118.299 87.808 105.389 85.5475 95.6989C83.9737 88.946 82.1091 84.6492 80.9931 82.1741C80.4065 80.8721 79.944 80.1329 79.4623 79.8849C78.9091 79.5988 76.8632 80.09 76.8632 80.09L76.7773 80.1091C77.1779 80.4572 77.5738 81.1392 78.065 82.2217V82.217Z" fill="#002547"/>
<path d="M56.9652 97.2118C58.0668 104.265 58.31 120.318 57.423 127.404C56.6171 133.828 54.9193 138.44 54.2183 140.147L77.7436 143.9C78.1299 143.542 78.5115 142.846 78.9645 141.749C80.0041 139.246 81.7353 134.892 83.1088 128.096C85.0736 118.343 84.8828 105.434 82.6223 95.743C81.0438 88.9901 79.1886 84.6932 78.0679 82.2181C77.5815 81.1356 77.1809 80.4536 76.7803 80.1055L53.3789 84.5692C54.1324 86.2575 55.9685 90.8166 56.9652 97.2118Z" fill="#00396A"/>
<path d="M26.3956 79.284L24.6406 84.7207L48.8861 83.4235L77.5525 77.8295C77.5525 77.8295 70.1749 77.4909 59.6164 78.1013C52.935 78.4828 43.7499 79.4271 37.8173 79.5034C32.1852 79.5749 28.3604 79.4271 26.3956 79.2888V79.284Z" fill="#002547"/>
<path d="M27.4054 146.247L25.4883 140.867L49.7576 141.435L78.5766 146.161C78.5766 146.161 71.2133 146.719 60.6405 146.433C53.9543 146.251 44.7407 145.588 38.8128 145.689C33.1807 145.789 29.3082 146.013 27.4054 146.251V146.247Z" fill="#002547"/>
<path d="M24.1479 79.1562L21.8874 84.7932L1.61447 85.7231C1.61447 85.7231 -0.913091 85.2748 -5.10026 83.2433C-9.87402 80.9303 -11.2189 79.6856 -11.2189 79.6856C-11.2189 79.6856 16.5462 78.6507 24.1479 79.1515V79.1562Z" fill="#002547"/>
<path d="M25.1596 146.436L22.7322 140.866L2.44021 140.546C2.44021 140.546 -0.0730553 141.071 -4.19823 143.227C-8.90045 145.683 -10.2072 146.965 -10.2072 146.965C-10.2072 146.965 17.577 147.161 25.1596 146.431V146.436Z" fill="#002547"/>
<path d="M116.584 80.1214L123.499 89.2731C124.224 90.2364 125.311 90.7992 126.456 90.9327C125.483 88.3098 124.3 86.0683 122.908 84.4087C120.209 81.1944 118.234 78.7813 115.859 76.9644C115.645 78.0326 115.869 79.1772 116.584 80.1262V80.1214Z" fill="url(#paint0_radial_1_397)"/>
<path d="M124.16 133.329L117.526 142.686C116.84 143.659 116.649 144.808 116.897 145.867C119.215 143.978 121.117 141.508 123.716 138.212C125.061 136.51 126.172 134.235 127.064 131.583C125.925 131.75 124.856 132.347 124.155 133.329H124.16Z" fill="url(#paint1_radial_1_397)"/>
<path d="M86.9922 86.1338C86.9922 86.1338 98.5093 92.2238 102.768 93.0107C106.02 93.6116 116.021 92.4384 116.021 92.4384C116.021 92.4384 106.469 91.9043 103.355 91.2843C99.1388 90.4402 86.9922 86.1338 86.9922 86.1338Z" fill="#E4510F"/>
<path d="M87.7656 137.637C87.7656 137.637 99.0967 131.204 103.327 130.288C106.56 129.587 116.589 130.46 116.589 130.46C116.589 130.46 107.056 131.28 103.966 132C99.7787 132.973 87.7656 137.642 87.7656 137.642V137.637Z" fill="#E4510F"/>
<path d="M78.965 141.749C80.0046 139.245 81.7358 134.891 83.1092 128.095C83.5909 125.715 83.9391 123.145 84.1632 120.479C76.7045 113.764 63.2464 105.881 57.5427 102.657C58.1198 110.593 58.1245 121.8 57.4235 127.399C56.6175 133.823 54.9198 138.434 54.2188 140.141L77.7441 143.895C78.1304 143.537 78.5119 142.841 78.965 141.744V141.749Z" fill="#173161"/>
<path d="M52.8308 112.372C52.9834 92.5472 49.2779 85.9517 49.2779 85.9517C49.2779 85.9517 1.25898 86.9198 -3.49093 88.5031C-6.70999 89.5761 -7.9547 102.085 -8.42206 110.021L-8.32191 116.569C-7.6161 124.49 -5.99464 136.951 -2.74696 137.929C2.04587 139.369 50.0743 138.887 50.0743 138.887C50.0743 138.887 53.5747 132.182 52.826 112.372H52.8308Z" fill="#E4510F"/>
<path d="M121.965 89.2651C121.965 89.2651 115.761 77.4285 102.346 76.3603C88.6442 75.2682 81.7578 75.5638 81.7578 75.5638C81.7578 75.5638 114.549 79.1549 121.965 89.2651Z" fill="#E4510F"/>
<path d="M122.641 133.447C122.641 133.447 116.794 145.47 103.422 146.938C89.7584 148.441 82.8672 148.355 82.8672 148.355C82.8672 148.355 115.535 143.772 122.641 133.442V133.447Z" fill="#E4510F"/>
<path d="M76.7995 145.953C76.7995 145.953 76.232 149.058 73.5852 149.167C70.9336 149.277 65.5113 146.196 68.9116 146.072C72.3119 145.953 75.7741 145.686 76.7947 145.953H76.7995Z" fill="#002547"/>
<path d="M71.1524 156.803C72.0586 156.107 73.9041 149.85 73.9041 149.85C74.2904 148.615 73.1936 148.214 72.2684 148.081L69.6836 157.051C70.1033 157.151 70.666 157.175 71.1572 156.798L71.1524 156.803Z" fill="#E4510F"/>
<path d="M72.256 148.08C71.6503 147.994 71.121 148.027 71.121 148.027L69.0703 156.831C69.0703 156.831 69.3183 156.964 69.6712 157.05L72.256 148.08Z" fill="url(#paint2_linear_1_397)"/>
<path d="M75.9564 78.0378C75.9564 78.0378 75.2935 74.7568 72.6467 74.7186C69.9951 74.6852 64.6729 78.1332 68.0732 78.1571C71.4735 78.1809 74.9453 78.3526 75.9611 78.0378H75.9564Z" fill="#002547"/>
<path d="M72.942 74.2437C72.942 74.2437 70.9104 68.044 69.9852 67.3763C69.432 66.9805 68.8025 67.0663 68.3828 67.2046L71.2537 76.075C72.198 75.9319 73.3807 75.5074 72.942 74.2389V74.2437Z" fill="#E4510F"/>
<path d="M68.3871 67.2041C68.1009 67.2947 67.9102 67.4044 67.9102 67.4044L70.2279 76.1412C70.2279 76.1412 70.7 76.1555 71.258 76.0744L68.3871 67.2041Z" fill="url(#paint3_linear_1_397)"/>
<path d="M40.9025 74.8358C40.8977 74.378 40.521 74.0155 40.0679 74.0251L33.2483 74.13C32.7952 74.1348 32.4328 74.5115 32.4375 74.9646L40.9025 74.8358Z" fill="#464646"/>
<path d="M6.77373 74.9403C6.76896 74.4872 6.39221 74.12 5.93916 74.1296L-0.880499 74.2345C-1.33355 74.2393 -1.70076 74.616 -1.69122 75.0691L6.77373 74.9403Z" fill="#464646"/>
<path d="M42.0431 150.25C42.0478 150.704 41.6854 151.08 41.2323 151.085L34.4127 151.19C33.9596 151.19 33.5829 150.832 33.5781 150.379L42.0431 150.25Z" fill="#464646"/>
<path d="M7.91026 151.181C7.91502 151.638 7.55259 152.01 7.09954 152.015L0.279885 152.12C-0.173169 152.12 -0.549919 151.762 -0.554688 151.309L7.91026 151.181Z" fill="#464646"/>
<path d="M89.5781 93.9016C89.7021 95.2226 90.4604 95.8712 90.5891 97.1969C90.5987 97.3019 90.6845 97.3877 90.7942 97.3877C90.9039 97.3877 90.9897 97.2971 90.9802 97.1922C90.8562 95.8712 90.098 95.2178 89.974 93.8968C89.9644 93.7871 89.8786 93.7061 89.7689 93.7061C89.6592 93.7061 89.5734 93.7967 89.5829 93.9016H89.5781Z" fill="url(#paint4_linear_1_397)"/>
<path d="M90.1901 97.2018C90.0662 95.8808 89.3079 95.2322 89.1839 93.9112C89.1743 93.8015 89.0885 93.7156 88.9788 93.7204C88.8739 93.7204 88.7881 93.811 88.7976 93.9159C88.9216 95.2369 89.6799 95.8855 89.8039 97.2065C89.8134 97.3162 89.904 97.4021 90.0089 97.3973C90.1138 97.3973 90.2045 97.3067 90.1901 97.197V97.2018Z" fill="url(#paint5_linear_1_397)"/>
<path d="M89.4176 97.21C89.2936 95.889 88.5353 95.2404 88.4113 93.9194C88.4018 93.8097 88.3159 93.7286 88.2062 93.7286C88.0966 93.7286 88.0107 93.8192 88.0203 93.9242C88.1442 95.2452 88.9025 95.8938 89.0265 97.2195C89.036 97.3244 89.1219 97.4103 89.2316 97.4103C89.3413 97.4103 89.4271 97.3197 89.4128 97.21H89.4176Z" fill="url(#paint6_linear_1_397)"/>
<path d="M90.1057 129.698C90.1916 128.372 90.926 127.7 91.0166 126.374C91.0214 126.269 91.1072 126.179 91.2121 126.179C91.317 126.179 91.4124 126.265 91.4029 126.369C91.317 127.695 90.5779 128.368 90.4968 129.693C90.4872 129.798 90.4062 129.889 90.2965 129.889C90.1868 129.889 90.101 129.803 90.1057 129.698Z" fill="url(#paint7_linear_1_397)"/>
<path d="M90.6373 126.379C90.5562 127.704 89.817 128.377 89.7312 129.703C89.7264 129.808 89.6405 129.898 89.5309 129.898C89.4212 129.898 89.3353 129.812 89.3401 129.707C89.4259 128.382 90.1651 127.709 90.2462 126.383C90.2557 126.274 90.3368 126.188 90.4465 126.183C90.5514 126.183 90.642 126.269 90.6373 126.374V126.379Z" fill="url(#paint8_linear_1_397)"/>
<path d="M89.856 126.394C89.7702 127.72 89.0357 128.392 88.9499 129.718C88.9404 129.823 88.8593 129.913 88.7496 129.918C88.6399 129.918 88.5541 129.832 88.5588 129.727C88.6399 128.402 89.3791 127.729 89.4649 126.403C89.4697 126.298 89.5556 126.208 89.6653 126.208C89.7749 126.208 89.8608 126.294 89.856 126.399V126.394Z" fill="url(#paint9_linear_1_397)"/>
<path opacity="0.59" d="M209.357 252.496V-9.27344H-119.703V252.496H209.357ZM-28.873 93.2263C-29.8793 76.9784 -1.22244 75.1376 25.1739 77.4314C51.5655 79.7253 62.0668 71.3224 78.1478 74.9802C82.6306 76.0007 86.4697 77.9465 89.6792 80.2213C96.723 85.2192 101.22 93.15 101.864 101.777C102.722 113.227 108.545 119.675 107.792 132.537C107.339 140.253 103.4 144.502 99.5796 146.825C96.4178 148.742 92.7409 149.62 89.0449 149.548C85.0676 149.467 78.3195 148.985 76.3451 146.677C73.4885 143.339 18.2922 143.339 -0.807549 147.955C-19.9073 152.572 -24.0564 141.431 -28.3055 135.665C-32.5547 129.905 -27.862 109.474 -28.8683 93.2263H-28.873Z" fill="#4C9FEC"/>
<path d="M144.504 97.5527C144.504 97.5527 136.397 69.4157 110.645 67.0312C110.645 67.0312 133.536 75.1385 144.504 97.5527Z" fill="#4C9FEC"/>
<path d="M137.83 112.335C137.83 112.335 142.599 98.5049 135.445 89.4438C135.445 89.4438 140.214 104.228 137.83 112.335Z" fill="#4C9FEC"/>
<path d="M129.72 149.533C129.72 149.533 119.705 164.794 106.352 160.502C106.352 160.502 113.505 164.317 129.72 149.533Z" fill="#4C9FEC"/>
<path d="M34.3371 154.304C34.3371 154.304 17.6457 149.058 10.4922 152.396C10.4922 152.396 19.5533 146.673 34.3371 154.304Z" fill="#4C9FEC"/>
<path d="M7.1452 62.7386C7.67197 62.7386 8.099 62.3116 8.099 61.7849C8.099 61.2581 7.67197 60.8311 7.1452 60.8311C6.61844 60.8311 6.19141 61.2581 6.19141 61.7849C6.19141 62.3116 6.61844 62.7386 7.1452 62.7386Z" fill="white"/>
<path d="M169.774 67.0305C170.037 67.0305 170.251 66.8169 170.251 66.5536C170.251 66.2902 170.037 66.0767 169.774 66.0767C169.51 66.0767 169.297 66.2902 169.297 66.5536C169.297 66.8169 169.51 67.0305 169.774 67.0305Z" fill="white"/>
<path d="M88.9458 186.255C89.3409 186.255 89.6612 185.935 89.6612 185.54C89.6612 185.145 89.3409 184.825 88.9458 184.825C88.5507 184.825 88.2305 185.145 88.2305 185.54C88.2305 185.935 88.5507 186.255 88.9458 186.255Z" fill="white"/>
<path d="M126.61 60.8327C127.269 60.8327 127.802 60.2989 127.802 59.6405C127.802 58.982 127.269 58.4482 126.61 58.4482C125.952 58.4482 125.418 58.982 125.418 59.6405C125.418 60.2989 125.952 60.8327 126.61 60.8327Z" fill="white"/>
<path d="M106.342 113.766C106.342 113.766 104.911 108.52 104.434 104.228C103.957 99.936 103.48 92.7825 101.573 89.4442C99.6652 86.1059 87.7428 77.0449 87.7428 77.0449L78.6817 75.1373L72.3008 72.4189C72.3008 72.4189 79.7452 74.7462 82.0772 74.2264C84.4045 73.7066 92.9886 76.0911 93.4655 78.9525C93.9424 81.8138 102.05 84.6752 104.434 89.4442C106.819 94.2132 104.911 99.4591 106.342 102.797C107.773 106.136 107.296 112.335 106.342 113.766Z" fill="white"/>
<path d="M102.76 148.085C102.76 148.085 94.4861 153.269 90.6423 151.877C86.7985 150.484 85.8447 150.007 81.5526 150.961C77.2605 151.915 71.6331 149.087 69.6779 148.352C67.7226 147.623 59.1384 146.669 56.7539 147.146C56.7539 147.146 67.5509 148.901 73.1211 152.315C78.6912 155.73 81.0757 150.961 86.7985 152.392C92.5213 153.822 101.554 150.451 102.76 148.081V148.085Z" fill="white"/>
<path d="M13.4402 151.183C13.4402 151.183 1.43666 149.533 -4.28612 152.394C-10.0089 155.255 -13.8241 148.579 -19.5469 147.625L-18.7266 148.398C-14.1341 152.718 -7.79132 154.659 -1.56303 153.639L13.4402 151.183Z" fill="white"/>
</g>
<defs>
<radialGradient id="paint0_radial_1_397" cx="0" cy="0" r="1" gradientUnits="userSpaceOnUse" gradientTransform="translate(124.135 83.8116) rotate(89.13) scale(6.1186 6.42454)">
<stop stop-color="white"/>
<stop offset="1" stop-color="#C3C7C6"/>
</radialGradient>
<radialGradient id="paint1_radial_1_397" cx="0" cy="0" r="1" gradientUnits="userSpaceOnUse" gradientTransform="translate(-3674.77 1202.45) rotate(180) scale(6.1186 6.11861)">
<stop stop-color="white"/>
<stop offset="1" stop-color="#C3C7C6"/>
</radialGradient>
<linearGradient id="paint2_linear_1_397" x1="72.256" y1="152.534" x2="69.0703" y2="152.534" gradientUnits="userSpaceOnUse">
<stop stop-color="white"/>
<stop offset="1" stop-color="white"/>
</linearGradient>
<linearGradient id="paint3_linear_1_397" x1="71.2532" y1="71.6679" x2="67.9102" y2="71.6679" gradientUnits="userSpaceOnUse">
<stop stop-color="white"/>
<stop offset="1" stop-color="white"/>
</linearGradient>
<linearGradient id="paint4_linear_1_397" x1="90.9754" y1="95.5421" x2="89.5781" y2="95.5421" gradientUnits="userSpaceOnUse">
<stop stop-color="white"/>
<stop offset="1" stop-color="white"/>
</linearGradient>
<linearGradient id="paint5_linear_1_397" x1="90.1949" y1="95.5565" x2="88.7976" y2="95.5565" gradientUnits="userSpaceOnUse">
<stop stop-color="white"/>
<stop offset="1" stop-color="white"/>
</linearGradient>
<linearGradient id="paint6_linear_1_397" x1="89.4223" y1="95.5647" x2="88.0203" y2="95.5647" gradientUnits="userSpaceOnUse">
<stop stop-color="white"/>
<stop offset="1" stop-color="white"/>
</linearGradient>
<linearGradient id="paint7_linear_1_397" x1="91.4077" y1="128.029" x2="90.1057" y2="128.029" gradientUnits="userSpaceOnUse">
<stop stop-color="white"/>
<stop offset="1" stop-color="white"/>
</linearGradient>
<linearGradient id="paint8_linear_1_397" x1="90.6373" y1="128.038" x2="89.3401" y2="128.038" gradientUnits="userSpaceOnUse">
<stop stop-color="white"/>
<stop offset="1" stop-color="white"/>
</linearGradient>
<linearGradient id="paint9_linear_1_397" x1="89.856" y1="128.058" x2="88.5588" y2="128.058" gradientUnits="userSpaceOnUse">
<stop stop-color="white"/>
<stop offset="1" stop-color="white"/>
</linearGradient>
</defs>
</svg>
