<svg width="72" height="72" viewBox="0 0 72 72" fill="none" xmlns="http://www.w3.org/2000/svg">
<g id="Group 126" filter="url(#filter0_d_1_389)">
<circle id="Oval Copy 2" cx="41" cy="36" r="25" fill="white" stroke="#CBCDCE"/>
<path id="Path" fill-rule="evenodd" clip-rule="evenodd" d="M33.0014 36.005C33.004 36.2316 33.0738 36.4483 33.1957 36.61L37.8612 42.7232C37.9844 42.8966 38.1559 42.9966 38.3362 42.9999C38.5165 43.0032 38.6917 42.9116 38.8187 42.7449C38.9457 42.5782 39.0168 42.3499 39.0143 42.1133C39.0118 41.8766 38.9368 41.6516 38.806 41.4899L35.2758 36.8633H48.3238C49.2254 36.88 49.2254 35.1 48.3238 35.1166H35.277L38.8048 30.495C38.9305 30.3317 39.0016 30.1083 39.0016 29.8767C39.0016 29.6433 38.9318 29.42 38.806 29.2567C38.679 29.09 38.5089 29 38.3324 29C38.1546 29 37.9844 29.095 37.86 29.26L33.1944 35.3733C33.0674 35.54 32.9963 35.77 33.0001 36.0066" fill="#CBCDCE"/>
</g>
<defs>
<filter id="filter0_d_1_389" x="0.5" y="0.5" width="71" height="71" filterUnits="userSpaceOnUse" color-interpolation-filters="sRGB">
<feFlood flood-opacity="0" result="BackgroundImageFix"/>
<feColorMatrix in="SourceAlpha" type="matrix" values="0 0 0 0 0 0 0 0 0 0 0 0 0 0 0 0 0 0 127 0" result="hardAlpha"/>
<feOffset dx="-5"/>
<feGaussianBlur stdDeviation="5"/>
<feColorMatrix type="matrix" values="0 0 0 0 0 0 0 0 0 0 0 0 0 0 0 0 0 0 0.0968094 0"/>
<feBlend mode="normal" in2="BackgroundImageFix" result="effect1_dropShadow_1_389"/>
<feBlend mode="normal" in="SourceGraphic" in2="effect1_dropShadow_1_389" result="shape"/>
</filter>
</defs>
</svg>
