<svg width="72" height="72" viewBox="0 0 72 72" fill="none" xmlns="http://www.w3.org/2000/svg">
<g id="Group 119" filter="url(#filter0_d_1_1090)">
<circle id="Oval Copy 2" cx="31" cy="36" r="25" fill="#EC6625" stroke="#EAEAEA"/>
<path id="Path" fill-rule="evenodd" clip-rule="evenodd" d="M38.9986 35.005C38.996 35.2316 38.9262 35.4483 38.8043 35.61L34.1388 41.7232C34.0156 41.8966 33.8441 41.9966 33.6638 41.9999C33.4835 42.0032 33.3083 41.9116 33.1813 41.7449C33.0543 41.5782 32.9832 41.3499 32.9857 41.1133C32.9882 40.8766 33.0632 40.6516 33.194 40.4899L36.7242 35.8633H23.6762C22.7746 35.88 22.7746 34.1 23.6762 34.1166H36.723L33.1952 29.495C33.0695 29.3317 32.9984 29.1083 32.9984 28.8767C32.9984 28.6433 33.0682 28.42 33.194 28.2567C33.321 28.09 33.4911 28 33.6676 28C33.8454 28 34.0156 28.095 34.14 28.26L38.8056 34.3733C38.9326 34.54 39.0037 34.77 38.9999 35.0066" fill="white"/>
</g>
<defs>
<filter id="filter0_d_1_1090" x="0.5" y="0.5" width="71" height="71" filterUnits="userSpaceOnUse" color-interpolation-filters="sRGB">
<feFlood flood-opacity="0" result="BackgroundImageFix"/>
<feColorMatrix in="SourceAlpha" type="matrix" values="0 0 0 0 0 0 0 0 0 0 0 0 0 0 0 0 0 0 127 0" result="hardAlpha"/>
<feOffset dx="5"/>
<feGaussianBlur stdDeviation="5"/>
<feColorMatrix type="matrix" values="0 0 0 0 0 0 0 0 0 0 0 0 0 0 0 0 0 0 0.0968094 0"/>
<feBlend mode="normal" in2="BackgroundImageFix" result="effect1_dropShadow_1_1090"/>
<feBlend mode="normal" in="SourceGraphic" in2="effect1_dropShadow_1_1090" result="shape"/>
</filter>
</defs>
</svg>
