<svg width="13" height="13" viewBox="0 0 13 13" fill="none" xmlns="http://www.w3.org/2000/svg">
<mask id="mask0_1_765" style="mask-type:alpha" maskUnits="userSpaceOnUse" x="0" y="0" width="13" height="13">
<path fill-rule="evenodd" clip-rule="evenodd" d="M0 0H12.3357V12.3299H0V0Z" fill="white"/>
</mask>
<g mask="url(#mask0_1_765)">
<path fill-rule="evenodd" clip-rule="evenodd" d="M10.1919 2.88367C10.1909 3.29467 9.8629 3.62067 9.4509 3.62067C9.0389 3.62067 8.7139 3.29667 8.7109 2.88367C8.7079 2.46767 9.0409 2.13667 9.4589 2.13967C9.8679 2.14167 10.1929 2.47267 10.1919 2.88367ZM6.14794 8.20916C5.03294 8.20716 4.12494 7.28516 4.12494 6.15616C4.12594 5.02816 5.04094 4.11816 6.17794 4.11816C7.30594 4.11916 8.21594 5.03516 8.21594 6.17116C8.21594 7.30516 7.29694 8.21116 6.14794 8.20916ZM6.16975 3.00195C4.42175 3.00095 3.00675 4.41695 3.00775 6.16795C3.00775 7.90995 4.41975 9.32395 6.16275 9.32695C7.91275 9.33095 9.33175 7.91695 9.33275 6.16795C9.33375 4.41695 7.91975 3.00295 6.16975 3.00195ZM11.0984 9.2579C10.9334 10.3349 10.2184 11.0019 9.13542 11.1209C8.14042 11.2299 3.69642 11.2899 2.77442 11.0309C1.89142 10.7849 1.38642 10.1779 1.23942 9.2889C1.09942 8.4409 1.06542 4.1989 1.23742 3.0649C1.40042 1.9959 2.11542 1.3299 3.19242 1.2089C4.28542 1.0869 8.21742 1.0729 9.26442 1.2339C10.3394 1.3989 11.0054 2.1149 11.1234 3.1999C11.2344 4.2129 11.2654 8.1699 11.0984 9.2579ZM12.2357 3.09361C12.1517 2.28161 11.8407 1.56361 11.2377 0.987611C10.6037 0.382611 9.8267 0.114611 8.9757 0.069611C7.5267 -0.00938898 4.0837 -0.059389 2.8747 0.137611C1.4937 0.362611 0.588696 1.16961 0.206696 2.53361C-0.0873038 3.58261 -0.0293038 8.42061 0.142696 9.45761C0.376696 10.8766 1.2147 11.7856 2.6207 12.1486C3.5937 12.3996 8.3757 12.3666 9.4487 12.1936C10.8677 11.9636 11.7817 11.1296 12.1507 9.72661C12.4327 8.64961 12.3337 4.06561 12.2357 3.09361Z" fill="#282828"/>
</g>
</svg>
