<svg width="10" height="9" viewBox="0 0 10 9" fill="none" xmlns="http://www.w3.org/2000/svg">
<path id="Path" fill-rule="evenodd" clip-rule="evenodd" d="M9.99911 4.50319C9.99753 4.6489 9.95388 4.78818 9.87768 4.89211L6.96172 8.82209C6.88473 8.93352 6.77759 8.9978 6.66489 8.99994C6.55218 9.00209 6.44266 8.94316 6.36329 8.83602C6.28392 8.72887 6.23948 8.58209 6.24106 8.42995C6.24265 8.27781 6.28948 8.13316 6.37123 8.02923L8.57764 5.05497H0.422632C-0.140877 5.06568 -0.140877 3.9214 0.422632 3.93212H8.57685L6.37202 0.961065C6.29345 0.856066 6.249 0.712496 6.249 0.563568C6.249 0.413569 6.29265 0.269998 6.37123 0.164999C6.45059 0.0578568 6.55695 0 6.66727 0C6.77838 0 6.88473 0.061071 6.96251 0.167142L9.87848 4.09712C9.95784 4.20426 10.0023 4.35212 9.99991 4.50426" fill="#282828"/>
</svg>
